<svg xmlns="http://www.w3.org/2000/svg" xmlns:xlink="http://www.w3.org/1999/xlink" id="Layer_1" x="0" y="0" viewBox="0 0 152 39" style="enable-background:new 0 0 152 39" xml:space="preserve"><g><g><defs><path id="SVGID_1_" d="M101.061,20.648c0-3.092,1.217-4.544,4.169-4.544c2.763,0,4.029,1.36,4.029,4.498v0.235h-8.198V20.648z M94.595,20.837v5.386c0,6.09,3.419,9.18,10.635,9.18c5.924,0,10.159-1.772,9.892-7.325L108.879,28 c0,1.831-1.447,2.438-3.697,2.438c-2.95,0-4.121-1.406-4.121-4.26v-1.407h13.958c0.376,0,0.608-0.235,0.608-0.609v-3.654 c0-6.231-3.56-9.415-10.491-9.415C98.014,11.093,94.595,14.466,94.595,20.837"/></defs><clipPath id="SVGID_2_"><use xlink:href="#SVGID_1_" style="overflow:visible"/></clipPath><radialGradient id="SVGID_3_" cx="-901.736" cy="769.547" r="1" gradientTransform="matrix(134.8085 -32.1702 -32.1702 -134.8085 146328.3281 74776.3203)" gradientUnits="userSpaceOnUse"><stop offset="0" style="stop-color:#9cd8ff"/><stop offset=".177" style="stop-color:#9ed3fe"/><stop offset=".395" style="stop-color:#a4c4fd"/><stop offset=".633" style="stop-color:#aeabfa"/><stop offset=".885" style="stop-color:#bb88f6"/><stop offset="1" style="stop-color:#c276f4"/></radialGradient><polygon style="clip-path:url(#SVGID_2_);fill:url(#SVGID_3_)" points="89.106 12.403 114.494 6.344 121.115 34.093 95.728 40.152"/></g><g><defs><path id="SVGID_4_" d="M9.386,15.588v7.918c0,8.009,4.639,11.897,12.743,11.897c8.432,0,13.348-4.356,12.693-11.103 c-0.046-0.421-0.236-0.656-0.657-0.656l-5.48,0.002c-0.375,0-0.56,0.235-0.515,0.61c0.189,3.139-1.638,5.386-5.901,5.386 c-3.935,0-6.183-2.061-6.183-6.417v-7.448c0-4.357,2.248-6.417,6.183-6.417c4.074,0,6.127,1.232,6.156,5.7 c0.002,0.378,0.14,0.924,0.516,0.924c0,0,1.492,0.056,3.269-0.46c1.779-0.516,2.74-1.127,2.671-2.141 c-0.5-7.229-4.179-9.786-12.706-9.786C14.071,3.597,9.386,7.486,9.386,15.588"/></defs><clipPath id="SVGID_5_"><use xlink:href="#SVGID_4_" style="overflow:visible"/></clipPath><radialGradient id="SVGID_6_" cx="-901.736" cy="769.547" r="1" gradientTransform="matrix(134.8085 -32.1702 -32.1702 -134.8085 146328.3281 74776.3203)" gradientUnits="userSpaceOnUse"><stop offset="0" style="stop-color:#9cd8ff"/><stop offset=".177" style="stop-color:#9ed3fe"/><stop offset=".395" style="stop-color:#a4c4fd"/><stop offset=".633" style="stop-color:#aeabfa"/><stop offset=".885" style="stop-color:#bb88f6"/><stop offset="1" style="stop-color:#c276f4"/></radialGradient><polygon style="clip-path:url(#SVGID_5_);fill:url(#SVGID_6_)" points="2.205 5.311 34.071 -2.294 42.658 33.689 10.792 41.294"/></g><g><defs><path id="SVGID_7_" d="M44.404,25.052v-3.607c0-3.374,1.311-4.825,4.264-4.825c2.949,0,4.26,1.451,4.26,4.825v3.607 c0,3.373-1.311,4.825-4.26,4.825C45.715,29.877,44.404,28.425,44.404,25.052 M37.892,20.837v4.825 c0,6.512,3.935,9.741,10.776,9.741c6.836,0,10.771-3.229,10.771-9.741v-4.825c0-6.465-3.935-9.744-10.771-9.744 C41.827,11.093,37.892,14.372,37.892,20.837"/></defs><clipPath id="SVGID_8_"><use xlink:href="#SVGID_7_" style="overflow:visible"/></clipPath><radialGradient id="SVGID_9_" cx="-901.736" cy="769.547" r="1" gradientTransform="matrix(134.8085 -32.1702 -32.1702 -134.8085 146328.3281 74776.3203)" gradientUnits="userSpaceOnUse"><stop offset="0" style="stop-color:#9cd8ff"/><stop offset=".177" style="stop-color:#9ed3fe"/><stop offset=".395" style="stop-color:#a4c4fd"/><stop offset=".633" style="stop-color:#aeabfa"/><stop offset=".885" style="stop-color:#bb88f6"/><stop offset="1" style="stop-color:#c276f4"/></radialGradient><polygon style="clip-path:url(#SVGID_8_);fill:url(#SVGID_9_)" points="32.403 12.403 58.278 6.228 64.927 34.093 39.053 40.268"/></g><g><defs><path id="SVGID_10_" d="M68.831,15.402c-0.045-1.076-0.186-2.296-0.376-3.232c-0.091-0.376-0.325-0.516-0.655-0.516h-5.251 c-0.421,0-0.566,0.266-0.404,0.686c0.122,0.316,0.691,1.387,0.691,5.216v17.286h6.51V20.648c1.071-2.286,3.31-2.953,5.091-2.953 c0.515,0,0.919,0.196,1.302,0.145c0.73-0.098,2.006-5.762,0.795-6.427c-0.584-0.32-1.086-0.32-1.647-0.32 C72.466,11.093,69.982,12.498,68.831,15.402"/></defs><clipPath id="SVGID_11_"><use xlink:href="#SVGID_10_" style="overflow:visible"/></clipPath><radialGradient id="SVGID_12_" cx="-901.736" cy="769.547" r="1" gradientTransform="matrix(134.8085 -32.1702 -32.1702 -134.8085 146328.3281 74776.3203)" gradientUnits="userSpaceOnUse"><stop offset="0" style="stop-color:#9cd8ff"/><stop offset=".177" style="stop-color:#9ed3fe"/><stop offset=".395" style="stop-color:#a4c4fd"/><stop offset=".633" style="stop-color:#aeabfa"/><stop offset=".885" style="stop-color:#bb88f6"/><stop offset="1" style="stop-color:#c276f4"/></radialGradient><polygon style="clip-path:url(#SVGID_11_);fill:url(#SVGID_12_)" points="56.621 12.373 76.896 7.534 83.107 33.562 62.832 38.401"/></g><g><defs><path id="SVGID_13_" d="M81.283,6.346c-1.38,0.89-2.048,2.564-2.048,8.796v11.831c0,6.042,2.107,8.43,7.964,8.43 c1.731,0,4.824-0.913,4.824-0.913l-1.133-5.121c0,0-1.35,0.462-2.381,0.462c-1.966,0-2.762-1.031-2.762-3.281v-9.461h4.676 c0.587,0,1.433-1.325,1.74-2.482c0.379-1.435,0.382-2.953-0.374-2.953h-6.042V6.079c0-0.375-0.235-0.607-0.611-0.607 c0,0-0.216-0.028-0.569-0.028C83.827,5.444,82.487,5.569,81.283,6.346"/></defs><clipPath id="SVGID_14_"><use xlink:href="#SVGID_13_" style="overflow:visible"/></clipPath><radialGradient id="SVGID_15_" cx="-901.736" cy="769.547" r="1" gradientTransform="matrix(134.8085 -32.1702 -32.1702 -134.8085 146328.3281 74776.3203)" gradientUnits="userSpaceOnUse"><stop offset="0" style="stop-color:#9cd8ff"/><stop offset=".177" style="stop-color:#9ed3fe"/><stop offset=".395" style="stop-color:#a4c4fd"/><stop offset=".633" style="stop-color:#aeabfa"/><stop offset=".885" style="stop-color:#bb88f6"/><stop offset="1" style="stop-color:#c276f4"/></radialGradient><polygon style="clip-path:url(#SVGID_14_);fill:url(#SVGID_15_)" points="72.471 7.058 91.828 2.439 99.309 33.789 79.952 38.408"/></g><g><defs><path id="SVGID_16_" d="M117.721,11.654c-0.467,0-0.656,0.33-0.375,0.751l7.311,10.468l-8.289,11.969h7.476 c0,0,3.902-6.511,4.652-7.823h0.046c0.796,1.357,4.695,7.823,4.695,7.823h7.377l-16.006-22.813 c-0.186-0.28-0.421-0.375-0.751-0.375H117.721z"/></defs><clipPath id="SVGID_17_"><use xlink:href="#SVGID_16_" style="overflow:visible"/></clipPath><radialGradient id="SVGID_18_" cx="-901.736" cy="769.547" r="1" gradientTransform="matrix(134.8085 -32.1702 -32.1702 -134.8085 146328.3281 74776.3203)" gradientUnits="userSpaceOnUse"><stop offset="0" style="stop-color:#9cd8ff"/><stop offset=".177" style="stop-color:#9ed3fe"/><stop offset=".395" style="stop-color:#a4c4fd"/><stop offset=".633" style="stop-color:#aeabfa"/><stop offset=".885" style="stop-color:#bb88f6"/><stop offset="1" style="stop-color:#c276f4"/></radialGradient><polygon style="clip-path:url(#SVGID_17_);fill:url(#SVGID_18_)" points="111.132 12.903 139.308 6.18 145.849 33.593 117.674 40.316"/></g><g><defs><path id="SVGID_19_" d="M135.899,9.607c-2.722,0.103-4.763,1.312-4.575,4.124c0.091,1.362,0.893,2.18,1.508,2.96 c0.322,0.408,0.592,0.863,0.285,1.624c-0.262,0.648-0.313,1.277,0.641,1.571c0.464,0.143,2.324-0.06,3.504-0.688 c1.652-0.879,3.116-2.179,3.306-4.955c0.17-2.491-1.602-4.64-4.453-4.64C136.043,9.603,135.971,9.604,135.899,9.607"/></defs><clipPath id="SVGID_20_"><use xlink:href="#SVGID_19_" style="overflow:visible"/></clipPath><radialGradient id="SVGID_21_" cx="-901.736" cy="769.547" r="1" gradientTransform="matrix(134.8085 -32.1702 -32.1702 -134.8085 146328.3281 74776.3203)" gradientUnits="userSpaceOnUse"><stop offset="0" style="stop-color:#9cd8ff"/><stop offset=".177" style="stop-color:#9ed3fe"/><stop offset=".395" style="stop-color:#a4c4fd"/><stop offset=".633" style="stop-color:#aeabfa"/><stop offset=".885" style="stop-color:#bb88f6"/><stop offset="1" style="stop-color:#c276f4"/></radialGradient><polygon style="clip-path:url(#SVGID_20_);fill:url(#SVGID_21_)" points="128.782 10.165 140.221 7.435 143.092 19.467 131.653 22.197"/></g></g></svg>